<svg width="256" height="33" fill="none" xmlns="http://www.w3.org/2000/svg"><path fill-rule="evenodd" clip-rule="evenodd" d="M229.391 23.592c-1.022.86-3.086 2.686-4.044 3.61-.894-.797-2.753-2.252-3.902-3.08v-.141c.331-.112.567-.419.567-1.168v-8.846c-.925-.669-2.664-1.734-3.654-2.37l-.781.743v10.898l1.562 1.168s-2.164 1.872-3.122 2.795c-.862-.828-2.15-1.794-3.299-2.654v-.106c.331-.111.567-.454.567-1.203v-9.271c-.926-.669-2.629-1.734-3.618-2.37l-.958.813v10.828l1.561 1.168s-2.103 1.748-3.122 2.76c-.958-.86-2.024-1.644-3.3-2.62v-.07c.359-.146.568-.589.568-1.097v-10.65l-1.277-1.132-.994.849-.39-.425c.958-.796 2.671-2.339 4.044-3.645l2.91 2.619v.743l3.938-3.362c1.245.892 4.93 3.22 4.93 3.22l3.797-3.22c1.213.956 4.002 2.682 5.534 3.574v.142c-.511.136-.568.782-.568 1.132v9.59l1.632 1.238.958-.85.461.39zM202.005 4.906c-1.022 1.436-1.852 2.092-3.513 2.092-1.117 0-1.908-.51-2.802-1.595l-.923.886-.39-.496 4.009-3.582c1.117 2.266 2.462 2.585 3.548 2.553l.071.142zm1.027 18.686c-1.119.955-2.991 2.597-4.01 3.61-.958-.861-2.59-2.104-3.867-3.08v-.106c.359-.146.568-.588.568-1.097v-10.19l-1.277-1.132-.993.849-.391-.425c.958-.796 2.672-2.339 4.045-3.645l3.476 3.079v.142c-.415.127-.567.393-.567 1.344v9.872l1.667 1.168.923-.814.426.425zm-68.292-.011c-1.117.955-2.989 2.598-4.009 3.61-.958-.86-2.59-2.104-3.866-3.08v-.105c.358-.146.567-.588.567-1.097V6.385l-1.277-1.133-.994.85-.39-.425c.958-.796 2.459-2.304 3.832-3.61l3.689 3.08v.14c-.415.128-.567.394-.567 1.345v16.17l1.667 1.169.957-.814.391.424zm-38.243.011a107.78 107.78 0 00-4.009 3.61c-.894-.797-2.718-2.252-3.867-3.08v-.141c.332-.112.568-.419.568-1.168v-8.846c-.926-.669-2.63-1.734-3.619-2.37-.202.15-.75.626-.958.813v10.828l1.561 1.168s-2.138 1.748-3.157 2.76c-.958-.86-1.988-1.644-3.264-2.62v-.07c.359-.146.568-.589.568-1.097v-10.65l-1.313-1.168-.958.85-.426-.425a92.058 92.058 0 004.08-3.61l2.91 2.619v.743l3.937-3.362c1.213.956 3.967 2.682 5.5 3.574v.142c-.511.136-.569.782-.569 1.132v9.59l1.668 1.202.922-.849.426.425zm154.678.99v-5.13c-.606-.287-1.528-.685-2.128-.992l-4.931 5.096.141.035c.75-.407 1.412-.92 2.945-.92 1.565 0 3.154 1.13 3.902 1.947l.071-.036zM256 22.6c-2.49 1.083-6.091 3.04-7.84 4.6-.894-.86-2.065-1.662-3.619-1.662-1.456 0-2.129.532-2.129 1.026 0 .307.604.265.604.707a.42.42 0 01-.426.425c-.341 0-.78-.484-.78-1.097 0-1.146.594-2.14 2.412-4.034l3.193-3.326c-1.319-.672-3.223-1.518-4.293-1.982v-.141c.311-.088.533-.412.533-.779v-2.724c0-.301-.15-.757-.533-.885v-.141c2.682-.955 6.106-2.877 8.053-4.246.437.484 1.573 1.521 2.803 1.521 1.036 0 1.277-.523 1.277-.884 0-.205-.39-.319-.39-.637 0-.272.15-.39.355-.39.305 0 .568.306.568.885 0 1.72-1.633 3.999-4.223 3.999-1.703 0-2.749-.867-3.547-1.982l-.071.036v4.28l2.342 1.133 1.064-1.097c1.105.698 3.426 1.92 4.647 2.442v.106a.934.934 0 00-.567.884v3.008c0 .431.344.719.567.814v.141zm-18.023-6.616a246.225 246.225 0 01-3.477-4.954l-.106.036v7.182l3.583-2.264zm4.008-1.805l-7.591 4.706v3.22c.958.414 3.093 1.455 4.115 2.123l1.632-1.663c.452-.46.302-1.202 1.1-1.202.223 0 .39.134.39.388 0 .272-.188.4-.319.532l-4.967 4.918c-1.692-1.084-5.119-2.66-6.811-3.362v-.14c.273-.103.603-.291.603-.992v-8.952c0-.733-.293-.967-.603-1.027v-.14c2.554-.829 6.45-2.906 8.301-4.212 1.278 1.911 2.938 4.275 4.15 5.803z" fill="#202020"/><path fill-rule="evenodd" clip-rule="evenodd" d="M189.339 23.58V7.41c-.191.013-.513.035-.709.035-1.097 0-3.012-.429-4.257-.779-3.704.669-8.018 3.796-8.018 9.66 0 5.029 3.593 8.245 8.691 8.245 1.725 0 3.235-.362 4.293-.99zm4.435-20.488c0 2.565-1.891 3.864-3.903 4.246v16.03c2.587-1.433 3.123-3.008 3.123-3.751 0-.162-.32-.382-.32-.673 0-.226.261-.424.461-.424.292 0 .426.265.426.744 0 3.726-3.576 8.74-11.174 8.74-5.702 0-10.538-4.466-10.538-10.227 0-8.216 6.919-11.072 11.708-11.359-1.756-.382-4.582-.99-6.918-.99-2.714 0-4.931 1.61-4.931 3.043 0 .54.426.644.426 1.026 0 .21-.1.46-.391.46-.447 0-.603-.466-.603-.814 0-3.121 2.024-7.572 6.74-7.572 4.782 0 8.411 1.733 12.133 1.733 2.462 0 3.218-.866 3.122-2.3l.391.177c.095.223.248.955.248 1.911zm-36.756 21.49v-5.13c-.606-.287-1.528-.685-2.128-.992l-4.931 5.096.142.035c.749-.407 1.412-.92 2.945-.92 1.564 0 3.153 1.13 3.902 1.947l.07-.036zm4.826-1.982c-2.492 1.083-6.092 3.04-7.84 4.6-.896-.86-2.066-1.662-3.62-1.662-1.456 0-2.128.532-2.128 1.026 0 .307.603.265.603.707a.42.42 0 01-.425.425c-.341 0-.782-.484-.782-1.097 0-1.146.595-2.14 2.414-4.034l3.192-3.326c-1.319-.672-3.223-1.518-4.293-1.982v-.141c.311-.088.532-.412.532-.779v-2.724c0-.301-.148-.757-.532-.885v-.141c2.683-.955 6.106-2.877 8.053-4.246.437.484 1.573 1.521 2.803 1.521 1.037 0 1.277-.523 1.277-.884 0-.205-.39-.319-.39-.637 0-.272.15-.39.354-.39.307 0 .568.306.568.885 0 1.72-1.632 3.999-4.221 3.999-1.704 0-2.75-.867-3.548-1.982l-.07.036v4.28l2.34 1.133 1.065-1.097c1.105.698 3.426 1.92 4.648 2.442v.106a.933.933 0 00-.568.884v3.008c0 .431.344.719.568.814v.141zm-17.916-6.616a254.636 254.636 0 01-3.477-4.954l-.106.036v7.182l3.583-2.264zm3.974-1.805l-7.557 4.706v3.22c.958.414 3.094 1.455 4.116 2.123l1.632-1.663c.451-.46.302-1.202 1.099-1.202.224 0 .355.134.355.388 0 .272-.188.4-.319.532l-4.932 4.918c-1.692-1.084-5.118-2.66-6.811-3.362v-.14c.274-.103.568-.291.568-.992v-8.952c0-.733-.257-.967-.568-1.027v-.14c2.554-.829 6.45-2.906 8.302-4.212 1.276 1.911 2.901 4.275 4.115 5.803zm-25.613 1.805a246.225 246.225 0 01-3.477-4.954l-.071.036v7.182l3.548-2.264zm4.009-1.805l-7.557 4.706v3.22c.958.414 3.094 1.455 4.116 2.123l1.632-1.663c.451-.46.266-1.202 1.064-1.202.223 0 .39.134.39.388 0 .272-.188.4-.319.532l-4.932 4.918c-1.692-1.084-5.119-2.66-6.811-3.362v-.14c.273-.103.567-.291.567-.992v-8.952c0-.733-.257-.967-.567-1.027v-.14c2.554-.829 6.45-2.906 8.302-4.212 1.277 1.911 2.902 4.275 4.115 5.803zm-19.585 9.941V14.107c-1.245-.701-3.275-2.113-4.648-3.291l-.071.035v11.182c1.246.573 3.296 1.776 4.222 2.476l.497-.39zm5.995 1.663c-.102 4.044-2.102 6.83-5.889 6.83-2.963 0-5.149-1.522-7.84-1.522-1.568 0-2.43.481-2.874 1.026l-.177-.106c.16-2.93 2.238-4.565 4.895-4.565 2.93 0 5.06 1.876 8.16 1.876 1.98 0 3.002-1.037 3.193-2.088l-.035-.07c-.415.253-.941.565-1.739.565-1.597 0-3.331-1.1-3.618-3.043-.763.53-2.479 1.857-3.229 2.513-1.871-1.206-4.883-2.71-6.35-3.362v-.141c.306-.1.497-.478.497-.85v-9.129c0-.542-.195-.922-.568-.99v-.142c2.714-.987 6.205-2.817 8.089-4.281 1.633 1.288 4.602 3.105 6.35 4.104v.177c-.383.16-.568.414-.568 1.274v9.837c0 1.262.114 2.122 1.029 2.122.146 0 .334-.123.461-.282l.213.247zm-42.961-9.071l-3.3-10.049-3.582 10.049h6.882zm9.579 6.617l-4.187 3.857a70.917 70.917 0 00-3.796-2.512v-.177c.348-.127.529-.474.532-.885.002-.18-.01-.376-.07-.566l-1.242-3.892h-8.62l-1.136 3.255c1.774 0 2.825.274 3.69.637l.745-1.38.532.283-2.838 5.272c-1.162-.66-2.453-1.168-3.938-1.168-1.752 0-3.078.455-3.725 1.062-.13.122-.325.09-.249-.176.703-2.453 2.468-4.323 5.18-4.495L66.2 5.884c-.671-1.942-1.41-2.335-2.91-2.335-1.405 0-2.767.651-2.767 2.371 0 .796.78.728.78 1.31 0 .203-.188.424-.46.424-.512 0-.852-.68-.852-2.017 0-3.025 2.302-4.812 4.825-4.812 2.299 0 3.2.884 3.902 1.84.224-.892 1.128-1.306 1.81-1.416l.07.106c-.425.527-.674.995-.674 1.664 0 .347.258 1.135.355 1.415l6.457 18.612 1.17.743.994-.92.426.46zm-36.152 1.253v-5.13c-.606-.287-1.493-.685-2.093-.992l-4.966 5.096.177.035c.75-.407 1.412-.92 2.945-.92 1.564 0 3.118 1.13 3.866 1.947l.071-.036zM48 22.6c-2.49 1.083-6.056 3.04-7.804 4.6-.895-.86-2.101-1.662-3.655-1.662-1.456 0-2.093.532-2.093 1.026 0 .307.603.265.603.707 0 .204-.189.425-.46.425-.342 0-.781-.484-.781-1.097 0-1.146.63-2.14 2.448-4.034l3.193-3.326c-1.319-.672-3.26-1.518-4.329-1.982v-.141a.823.823 0 00.568-.779v-2.724c0-.301-.185-.757-.568-.885v-.141c2.682-.955 6.106-2.877 8.053-4.246.437.484 1.573 1.521 2.803 1.521 1.036 0 1.277-.523 1.277-.884 0-.205-.355-.319-.355-.637 0-.272.115-.39.32-.39.305 0 .603.306.603.885 0 1.72-1.668 3.999-4.258 3.999-1.703 0-2.749-.867-3.547-1.982l-.07.036v4.28l2.376 1.133 1.064-1.097c1.105.698 3.392 1.92 4.612 2.442v.106c-.239.1-.532.375-.532.884v3.008a.91.91 0 00.532.814v.141zm-19.512 2.018v-10.51c-1.469-.796-3.626-2.399-4.648-3.29l-.07.035v10.721c1.404.765 3.497 2.092 4.647 3.079l.07-.035zm4.86-2.017c-2.136.87-6.265 3.04-8.053 4.6-1.884-1.37-4.638-3.176-6.386-4.176v-.106c.447-.16.568-.485.568-1.026V13.86c0-.74-.185-1.006-.568-1.133v-.141c2.938-1.083 5.726-2.623 8.089-4.247 1.628 1.21 4.466 2.99 6.35 4.105v.142c-.34.136-.568.484-.568 1.026v7.961c0 .574.217.79.568.885v.142zm-22.315-1.11V6.594C8.938 6.365 7.87 4.837 7.166 4.01L5.144 5.638c.011 2.266.676 4.244 1.454 6.051.712 1.652 1.49 3.79 1.49 5.273 0 2.44-1.351 3.981-4.576 7.006l.107.106c1.915-1.432 4.84-2.539 7.414-2.583zm7.663.248l-3.016 5.556c-1.64-1.14-4.258-1.84-6.491-1.84-4.407 0-7.447.782-9.012 1.77L0 27.011c1.397-1.22 3.725-3.18 3.725-7.644 0-1.88-.762-4.012-1.313-5.414-.636-1.623-1.135-2.476-1.135-4.742 0-3.945 2.123-6.173 5.464-7.856l.283.319c-1.152.956-1.71 2.187-1.88 3.432L10.501.648c1.367 1.916 2.644 2.655 4.328 2.655 1.382 0 1.774-.612 1.774-1.098 0-.35-.46-.4-.46-.743 0-.325.235-.424.424-.424.424 0 .639.545.639.955 0 2.687-2.253 4.671-4.647 4.671-.415 0-.73.046-.993 0v14.827c2.075 0 4.218.62 5.782 1.416l.816-1.416.532.248z" fill="#202020"/><path fill-rule="evenodd" clip-rule="evenodd" d="M187.955 8.839c0 .222-.264.389-.426.389-.275 0-.51-.531-1.276-.531-1.128 0-2.058.962-2.058 2.088 0 2.961 2.908 4.159 2.908 7.537 0 2.832-2.769 4.474-5.639 4.847l-.533-.389c1.573-.204 2.306-.746 2.306-2.654 0-2.58-2.661-4.679-2.661-7.714 0-2.455 2.303-4.352 5.463-4.352a3.8 3.8 0 011.561.354c.192.095.355.233.355.425z" fill="#202020"/></svg>