<svg width="120" height="40" fill="none" xmlns="http://www.w3.org/2000/svg"><g clip-path="url(#clip0)"><path d="M110.444 0H9.561c-.367 0-.73 0-1.097.002-.307.002-.612.008-.922.013-.673.008-1.345.067-2.01.176a6.697 6.697 0 00-1.906.627 6.455 6.455 0 00-2.804 2.8 6.588 6.588 0 00-.627 1.903 12.958 12.958 0 00-.18 2.003c-.01.306-.01.614-.015.92V31.56c.005.31.006.61.015.921.008.671.068 1.34.18 2.002.11.663.322 1.306.627 1.905A6.208 6.208 0 002.003 38a6.291 6.291 0 001.623 1.179c.6.304 1.243.517 1.907.63.664.11 1.336.168 2.01.177.31.007.614.011.92.011.367.002.73.002 1.098.002h100.883c.361 0 .727 0 1.087-.002.306 0 .619-.004.924-.01a13.363 13.363 0 002.006-.178 6.846 6.846 0 001.914-.63A6.321 6.321 0 00117.997 38a6.39 6.39 0 001.184-1.614c.303-.6.513-1.242.621-1.905.112-.661.174-1.33.186-2.002.004-.31.004-.61.004-.921.008-.364.008-.725.008-1.094V9.536c0-.366 0-.73-.008-1.092 0-.306 0-.614-.004-.92a13.437 13.437 0 00-.186-2.003 6.59 6.59 0 00-.621-1.903 6.474 6.474 0 00-2.806-2.8 6.808 6.808 0 00-1.914-.627 13.093 13.093 0 00-2.006-.176c-.305-.005-.618-.011-.924-.013-.36-.002-.726-.002-1.087-.002z" fill="#393939"/><path d="M8.469 39.125c-.306 0-.604-.004-.907-.01a12.752 12.752 0 01-1.875-.164 5.912 5.912 0 01-1.661-.548 5.42 5.42 0 01-1.401-1.016 5.322 5.322 0 01-1.023-1.397 5.711 5.711 0 01-.545-1.657 12.381 12.381 0 01-.167-1.875c-.006-.21-.015-.913-.015-.913v-23.1s.01-.692.015-.895c.008-.628.063-1.253.166-1.872.096-.579.28-1.14.545-1.662a5.58 5.58 0 012.424-2.42 5.85 5.85 0 011.658-.545A12.748 12.748 0 017.564.887L8.47.875h103.057l.916.013c.624.007 1.247.061 1.863.162a5.965 5.965 0 011.676.548 5.6 5.6 0 012.422 2.42c.261.52.442 1.076.536 1.649.104.624.163 1.255.175 1.887.003.283.003.588.003.89.008.375.008.732.008 1.092v20.929c0 .363 0 .718-.008 1.075 0 .325 0 .623-.004.93-.012.62-.069 1.24-.172 1.853a5.718 5.718 0 01-.541 1.67c-.265.513-.608.98-1.019 1.386a5.41 5.41 0 01-1.403 1.022 5.897 5.897 0 01-1.673.55c-.619.101-1.246.156-1.874.163-.294.007-.601.011-.9.011l-1.087.002L8.47 39.125z" fill="#fff"/><path d="M25.067 19.89a5.135 5.135 0 012.457-4.318 5.277 5.277 0 00-4.162-2.244c-1.75-.183-3.448 1.045-4.34 1.045-.91 0-2.284-1.027-3.764-.996a5.553 5.553 0 00-4.664 2.836c-2.017 3.482-.513 8.6 1.42 11.414.966 1.379 2.095 2.918 3.574 2.863 1.446-.06 1.986-.92 3.732-.92 1.73 0 2.237.92 3.745.886 1.552-.025 2.53-1.385 3.463-2.776a11.385 11.385 0 001.583-3.216 4.985 4.985 0 01-2.213-1.83 4.964 4.964 0 01-.831-2.744zm-2.849-8.413a5.058 5.058 0 001.163-3.63 5.174 5.174 0 00-3.345 1.726 4.817 4.817 0 00-1.193 3.495 4.286 4.286 0 003.375-1.591z" fill="#000"/><path d="M42.42 27.14h-4.746l-1.14 3.356h-2.01l4.495-12.418h2.09l4.495 12.418H43.56l-1.14-3.356zm-4.255-1.55h3.763l-1.855-5.446h-.052l-1.856 5.447zm17.149.38c0 2.813-1.51 4.62-3.789 4.62a3.085 3.085 0 01-2.856-1.583h-.044v4.484h-1.863V21.442h1.804v1.506h.034a3.217 3.217 0 012.89-1.6c2.305 0 3.824 1.816 3.824 4.622zm-1.916 0c0-1.833-.95-3.038-2.399-3.038-1.424 0-2.381 1.23-2.381 3.038 0 1.824.957 3.046 2.381 3.046 1.45 0 2.4-1.197 2.4-3.046zm11.909 0c0 2.813-1.51 4.62-3.79 4.62a3.085 3.085 0 01-2.856-1.583h-.043v4.484h-1.863V21.442h1.803v1.506h.035a3.218 3.218 0 012.89-1.6c2.305 0 3.824 1.816 3.824 4.622zm-1.916 0c0-1.833-.95-3.038-2.399-3.038-1.424 0-2.382 1.23-2.382 3.038 0 1.824.958 3.046 2.382 3.046 1.45 0 2.4-1.197 2.4-3.046zm8.519 1.066c.14 1.232 1.339 2.04 2.978 2.04 1.57 0 2.7-.808 2.7-1.919 0-.964-.68-1.54-2.295-1.936l-1.614-.388c-2.286-.55-3.348-1.617-3.348-3.348 0-2.142 1.872-3.614 4.53-3.614 2.633 0 4.437 1.472 4.497 3.614h-1.88c-.113-1.239-1.14-1.987-2.642-1.987-1.501 0-2.529.757-2.529 1.858 0 .878.656 1.395 2.262 1.79l1.372.336c2.554.603 3.615 1.626 3.615 3.443 0 2.323-1.855 3.778-4.806 3.778-2.762 0-4.627-1.42-4.747-3.667h1.908zM83.58 19.3v2.142h1.727v1.472H83.58v4.991c0 .776.346 1.137 1.105 1.137.205-.004.41-.018.613-.043v1.463a5.13 5.13 0 01-1.035.086c-1.838 0-2.555-.689-2.555-2.444v-5.19h-1.32v-1.472h1.32V19.3h1.872zm2.726 6.67c0-2.849 1.682-4.639 4.305-4.639 2.633 0 4.307 1.79 4.307 4.639 0 2.856-1.666 4.638-4.307 4.638-2.64 0-4.305-1.782-4.305-4.638zm6.713 0c0-1.954-.897-3.108-2.408-3.108-1.51 0-2.408 1.162-2.408 3.108 0 1.962.899 3.106 2.408 3.106 1.51 0 2.408-1.144 2.408-3.106zm3.436-4.528h1.778v1.541h.042a2.16 2.16 0 012.184-1.635 2.8 2.8 0 01.639.07v1.737a2.607 2.607 0 00-.837-.112 1.88 1.88 0 00-1.86 1.286 1.867 1.867 0 00-.082.797v5.37h-1.864v-9.053zm13.235 6.395c-.251 1.644-1.855 2.772-3.909 2.772-2.641 0-4.28-1.765-4.28-4.596 0-2.84 1.648-4.682 4.202-4.682 2.511 0 4.091 1.72 4.091 4.466v.637h-6.412v.112a2.348 2.348 0 001.462 2.392c.311.126.645.185.98.172a2.058 2.058 0 002.097-1.273h1.769zm-6.3-2.702h4.54a2.184 2.184 0 00-.611-1.634 2.18 2.18 0 00-1.616-.664 2.297 2.297 0 00-2.313 2.298zM37.932 8.731a2.654 2.654 0 012.112.818 2.64 2.64 0 01.704 2.147c0 1.906-1.033 3.002-2.816 3.002h-2.16V8.73h2.16zM36.7 13.854h1.129a1.885 1.885 0 001.91-1.322 1.87 1.87 0 00.063-.824 1.875 1.875 0 00-.482-1.53 1.886 1.886 0 00-1.491-.604H36.7v4.28zm5.098-1.41a2.127 2.127 0 011.264-2.154 2.146 2.146 0 012.448.517 2.131 2.131 0 01.547 1.637 2.129 2.129 0 01-1.263 2.158 2.145 2.145 0 01-2.451-.517 2.132 2.132 0 01-.545-1.64zm3.342 0c0-.976-.44-1.546-1.211-1.546-.775 0-1.21.57-1.21 1.546 0 .984.435 1.55 1.21 1.55.771 0 1.211-.57 1.211-1.55zm6.578 2.254h-.924l-.934-3.317h-.07l-.93 3.317h-.915L46.7 10.195h.904l.809 3.436h.067l.928-3.436h.855l.928 3.436h.07l.806-3.436h.89l-1.239 4.503zm2.287-4.503h.858v.715h.066a1.35 1.35 0 011.348-.802 1.472 1.472 0 011.512 1.026c.066.21.083.431.05.649v2.915h-.89v-2.692c0-.724-.316-1.084-.975-1.084a1.039 1.039 0 00-1.03.703c-.047.14-.064.29-.048.439v2.634h-.891v-4.503zm5.255-1.758h.89v6.26h-.89v-6.26zm2.13 4.007a2.133 2.133 0 012.13-2.336 2.144 2.144 0 011.582.698 2.124 2.124 0 01.547 1.638 2.128 2.128 0 01-1.263 2.158 2.143 2.143 0 01-2.898-1.28 2.127 2.127 0 01-.098-.878zm3.342 0c0-.976-.44-1.546-1.211-1.546-.775 0-1.21.57-1.21 1.546 0 .984.435 1.55 1.21 1.55.772 0 1.211-.57 1.211-1.55zm1.855.98c0-.81.605-1.277 1.68-1.344l1.223-.07v-.389c0-.475-.315-.744-.924-.744-.498 0-.843.182-.942.5h-.862c.09-.773.82-1.269 1.845-1.269 1.132 0 1.77.562 1.77 1.513v3.077h-.858v-.633h-.07a1.516 1.516 0 01-1.356.707 1.365 1.365 0 01-1.506-1.348zm2.903-.384v-.377l-1.103.07c-.622.042-.904.253-.904.65 0 .405.353.641.837.641a1.07 1.07 0 001.058-.577c.064-.127.103-.265.112-.407zm2.059-.596c0-1.423.733-2.324 1.874-2.324a1.49 1.49 0 011.384.79h.067V8.437h.891v6.26h-.854v-.71h-.07a1.57 1.57 0 01-1.418.785c-1.149 0-1.874-.901-1.874-2.328zm.92 0c0 .955.452 1.53 1.206 1.53.752 0 1.216-.583 1.216-1.526 0-.938-.47-1.53-1.216-1.53-.75 0-1.206.58-1.206 1.526zm6.984 0a2.12 2.12 0 01.546-1.638 2.142 2.142 0 013.613.762c.094.282.128.58.1.876a2.127 2.127 0 01-1.264 2.158 2.146 2.146 0 01-2.45-.517 2.13 2.13 0 01-.545-1.64zm3.342 0c0-.976-.44-1.546-1.212-1.546-.775 0-1.21.57-1.21 1.546 0 .984.435 1.55 1.21 1.55.772 0 1.212-.57 1.212-1.55zm2.112-2.249h.858v.715h.066a1.35 1.35 0 011.348-.802 1.472 1.472 0 011.513 1.026c.065.21.082.431.05.649v2.915h-.891v-2.692c0-.724-.316-1.084-.974-1.084a1.04 1.04 0 00-1.03.703c-.048.14-.065.29-.049.439v2.634h-.891v-4.503zm8.871-1.121v1.141h.978v.749h-.978v2.315c0 .472.195.679.638.679.114 0 .227-.008.34-.021v.74a2.93 2.93 0 01-.485.046c-.991 0-1.385-.348-1.385-1.216v-2.543h-.717v-.749h.717V9.074h.892zm2.195-.637h.884v2.482h.07a1.387 1.387 0 011.377-.807 1.492 1.492 0 011.5 1.034c.065.208.084.428.055.645v2.907h-.892V12.01c0-.72-.336-1.084-.965-1.084a1.059 1.059 0 00-1.08.691 1.05 1.05 0 00-.057.45v2.63h-.892v-6.26zm9.082 5.045a1.835 1.835 0 01-1.956 1.303 2.051 2.051 0 01-2.086-2.324 2.077 2.077 0 012.082-2.353c1.256 0 2.014.856 2.014 2.27v.31h-3.188v.05a1.174 1.174 0 00.315.91 1.188 1.188 0 00.887.38 1.08 1.08 0 001.075-.546h.857zm-3.134-1.451h2.28a1.072 1.072 0 00-.296-.829 1.097 1.097 0 00-.815-.338 1.16 1.16 0 00-1.084.718 1.132 1.132 0 00-.085.449z" fill="#393939"/></g><defs><clipPath id="clip0"><path fill="#fff" d="M0 0h120v40H0z"/></clipPath></defs></svg>