<svg width="136" height="40" fill="none" xmlns="http://www.w3.org/2000/svg"><g clip-path="url(#clip0)"><path d="M130.963.808c2.317 0 4.231 1.9 4.231 4.199v29.99c0 2.298-1.914 4.198-4.231 4.198H5.037c-2.317 0-4.231-1.9-4.231-4.199V5.006C.806 2.709 2.72.809 5.037.809h125.926zm0-.8H5.037C2.217.009 0 2.309 0 5.008v29.99c0 2.798 2.216 4.998 5.037 4.998h125.926c2.821 0 5.037-2.2 5.037-4.999V5.006c0-2.698-2.216-4.997-5.037-4.997z" fill="#393939"/><path d="M47.751 10.203c0 .8-.201 1.5-.705 2-.605.6-1.31.9-2.216.9-.907 0-1.612-.3-2.217-.9-.604-.6-.906-1.3-.906-2.2 0-.9.302-1.599.906-2.199.605-.6 1.31-.9 2.217-.9.403 0 .806.1 1.209.3.402.2.705.4.906.7l-.504.5c-.403-.5-.906-.7-1.611-.7-.605 0-1.21.2-1.612.7-.504.4-.705 1-.705 1.7s.201 1.299.705 1.699c.503.4 1.007.7 1.612.7.705 0 1.209-.2 1.712-.7.302-.3.504-.7.504-1.2H44.83v-.8h2.921v.4zm4.634-2.499h-2.72v1.9h2.519v.7h-2.519v1.899h2.72v.8H48.86V7.004h3.526v.7zm3.325 5.298h-.806V7.704H53.19v-.7h4.231v.7H55.71v5.298zm4.634 0V7.005h.806v5.997h-.806zm4.231 0h-.806V7.704h-1.713v-.7h4.13v.7h-1.712v5.298h.101zm9.57-.8c-.604.6-1.31.9-2.216.9-.907 0-1.612-.3-2.216-.9-.605-.6-.907-1.299-.907-2.198 0-.9.302-1.6.907-2.2.604-.6 1.309-.9 2.216-.9.906 0 1.612.3 2.216.9.605.6.907 1.3.907 2.2 0 .9-.302 1.599-.907 2.199zm-3.828-.5c.403.4 1.008.7 1.612.7.604 0 1.209-.2 1.612-.7.403-.399.705-.999.705-1.698 0-.7-.201-1.3-.705-1.7-.403-.4-1.008-.7-1.612-.7-.604 0-1.209.2-1.612.7-.403.4-.705 1-.705 1.7s.201 1.299.705 1.699zm5.843 1.3V7.005h.907l2.921 4.698V7.005h.806v5.997h-.806l-3.123-4.898v4.898h-.705zM68.605 21.8c-2.418 0-4.333 1.799-4.333 4.298 0 2.4 1.915 4.298 4.333 4.298 2.417 0 4.331-1.799 4.331-4.298 0-2.6-1.914-4.299-4.331-4.299zm0 6.797c-1.31 0-2.418-1.1-2.418-2.6 0-1.499 1.108-2.598 2.418-2.598s2.417 1 2.417 2.599c0 1.5-1.108 2.599-2.417 2.599zm-9.37-6.798c-2.417 0-4.331 1.8-4.331 4.299 0 2.4 1.914 4.298 4.331 4.298 2.418 0 4.333-1.799 4.333-4.298 0-2.6-1.915-4.299-4.333-4.299zm0 6.798c-1.31 0-2.417-1.1-2.417-2.6 0-1.499 1.108-2.598 2.417-2.598 1.31 0 2.418 1 2.418 2.599 0 1.5-1.108 2.599-2.418 2.599zm-11.182-5.498v1.8h4.332c-.1.999-.503 1.799-1.007 2.299-.605.6-1.612 1.3-3.325 1.3-2.72 0-4.734-2.1-4.734-4.8 0-2.698 2.115-4.798 4.734-4.798 1.41 0 2.519.6 3.325 1.3l1.31-1.3c-1.109-1-2.52-1.799-4.534-1.799-3.627 0-6.75 2.999-6.75 6.598 0 3.598 3.123 6.597 6.75 6.597 2.015 0 3.425-.6 4.634-1.899 1.21-1.2 1.612-2.899 1.612-4.198 0-.4 0-.8-.1-1.1h-6.247zm45.737 1.4c-.403-1-1.41-2.7-3.627-2.7-2.216 0-4.03 1.7-4.03 4.299 0 2.4 1.814 4.298 4.232 4.298 1.913 0 3.123-1.2 3.525-1.899l-1.41-1c-.504.7-1.108 1.2-2.115 1.2-1.008 0-1.612-.4-2.116-1.3l5.742-2.399-.201-.5zm-5.843 1.399c0-1.6 1.31-2.5 2.216-2.5.705 0 1.41.4 1.612.9l-3.828 1.6zm-4.735 4.099h1.914V17.5h-1.914v12.496zm-3.022-7.298c-.504-.5-1.31-1-2.317-1-2.116 0-4.131 1.9-4.131 4.299 0 2.4 1.914 4.198 4.13 4.198 1.008 0 1.814-.5 2.217-1h.1v.6c0 1.6-.906 2.5-2.316 2.5-1.108 0-1.915-.8-2.116-1.5l-1.612.7c.504 1.1 1.713 2.5 3.828 2.5 2.217 0 4.03-1.3 4.03-4.4V22H80.19v.7zm-2.217 5.898c-1.31 0-2.418-1.1-2.418-2.6 0-1.499 1.109-2.598 2.418-2.598 1.31 0 2.317 1.1 2.317 2.599 0 1.5-1.007 2.599-2.317 2.599zm24.581-11.096h-4.533v12.496h1.914v-4.699h2.619c2.116 0 4.131-1.5 4.131-3.898 0-2.4-2.015-3.9-4.131-3.9zm.101 5.998h-2.72V19.2h2.72c1.41 0 2.216 1.2 2.216 2.1-.101 1.1-.906 2.199-2.216 2.199zm11.585-1.8c-1.41 0-2.821.6-3.325 1.9l1.713.7c.403-.7 1.007-.9 1.713-.9 1.007 0 1.914.6 2.014 1.6v.1c-.302-.2-1.107-.5-1.913-.5-1.814 0-3.627 1-3.627 2.799 0 1.699 1.511 2.799 3.123 2.799 1.31 0 1.914-.6 2.417-1.2h.101v1h1.814v-4.799c-.202-2.199-1.915-3.498-4.03-3.498zm-.202 6.898c-.604 0-1.51-.3-1.51-1.1 0-1 1.107-1.3 2.014-1.3.806 0 1.209.2 1.713.4-.202 1.2-1.209 2-2.217 2zm10.578-6.598l-2.115 5.399h-.101l-2.216-5.399h-2.015l3.324 7.598-1.914 4.198h1.914L126.631 22h-2.015zm-16.924 7.998h1.914V17.5h-1.914v12.496z" fill="#393939"/><path d="M10.477 7.505c-.302.3-.403.8-.403 1.399v22.092c0 .6.201 1.1.504 1.4l.1.1L23.17 20.1v-.2L10.477 7.505z" fill="url(#paint0_linear)"/><path d="M27.2 24.299L23.07 20.2v-.3l4.13-4.098.1.1 4.937 2.799c1.41.8 1.41 2.099 0 2.898L27.2 24.3z" fill="url(#paint1_linear)"/><path d="M27.3 24.198L23.07 20 10.477 32.496c.504.5 1.209.5 2.116.1L27.3 24.199z" fill="url(#paint2_linear)"/><path d="M27.3 15.802L12.594 7.505c-.907-.5-1.612-.4-2.116.1L23.07 20l4.23-4.198z" fill="url(#paint3_linear)"/><path opacity=".2" d="M27.2 24.099l-14.607 8.197c-.806.5-1.511.4-2.015 0l-.1.1.1.1c.504.4 1.209.5 2.015 0L27.2 24.099z" fill="#000"/><path opacity=".2" d="M10.477 32.296c-.302-.3-.403-.8-.403-1.4v.1c0 .6.201 1.1.504 1.4v-.1h-.1zm21.76-10.997L27.2 24.1l.1.1 4.937-2.8c.705-.4 1.008-.9 1.008-1.399 0 .5-.403.9-1.008 1.3z" fill="#000"/><path opacity=".2" d="M12.593 7.604l19.644 11.097c.605.4 1.008.8 1.008 1.299 0-.5-.303-1-1.008-1.4L12.593 7.505c-1.41-.8-2.519-.2-2.519 1.4v.1c0-1.5 1.108-2.2 2.519-1.4z" fill="#fff"/></g><defs><linearGradient id="paint0_linear" x1="21.962" y1="8.714" x2="5.185" y2="25.62" gradientUnits="userSpaceOnUse"><stop stop-color="#00A0FF"/><stop offset=".007" stop-color="#00A1FF"/><stop offset=".26" stop-color="#00BEFF"/><stop offset=".512" stop-color="#00D2FF"/><stop offset=".76" stop-color="#00DFFF"/><stop offset="1" stop-color="#00E3FF"/></linearGradient><linearGradient id="paint1_linear" x1="34.085" y1="20.001" x2="9.708" y2="20.001" gradientUnits="userSpaceOnUse"><stop stop-color="#FFE000"/><stop offset=".409" stop-color="#FFBD00"/><stop offset=".775" stop-color="orange"/><stop offset="1" stop-color="#FF9C00"/></linearGradient><linearGradient id="paint2_linear" x1="25.011" y1="22.295" x2="2.262" y2="45.221" gradientUnits="userSpaceOnUse"><stop stop-color="#FF3A44"/><stop offset="1" stop-color="#C31162"/></linearGradient><linearGradient id="paint3_linear" x1="7.351" y1=".183" x2="17.51" y2="10.421" gradientUnits="userSpaceOnUse"><stop stop-color="#32A071"/><stop offset=".069" stop-color="#2DA771"/><stop offset=".476" stop-color="#15CF74"/><stop offset=".801" stop-color="#06E775"/><stop offset="1" stop-color="#00F076"/></linearGradient><clipPath id="clip0"><path fill="#fff" d="M0 0h136v40H0z"/></clipPath></defs></svg>